# xmcd
#
# Track frame offsets:
#	150
#	14350
#	24834
#	35516
#	52442
#	83162
#	97984
#	112279
#	126645
#	143276
#	157855
#
# Disc length: 2283 seconds
#
# Revision: 0
# Processed by: cddbd v1.5.2PL0 Copyright (c) Steve Scherf et al.
# Submitted via: audiograbber 1.83.01
#
DISCID=8c08e90b
DTITLE=Canned Heat - Canned Heat
DYEAR=1967
DGENRE=Blues-rock
TTITLE0=Rollin' and Tumblin'
TTITLE1=Bullfrog Blues
TTITLE2=Evil is Going On
TTITLE3=Going Down Slow
TTITLE4=Catfish Blues
TTITLE5=Dust My Broom
TTITLE6=Help Me
TTITLE7=Big Road Blues
TTITLE8=Story Of My Life
TTITLE9=The Road Song
TTITLE10=Rich Woman
EXTD=
EXTT0=
EXTT1=
EXTT2=
EXTT3=
EXTT4=
EXTT5=
EXTT6=
EXTT7=
EXTT8=
EXTT9=
EXTT10=
PLAYORDER=
